<svg width="121" height="61" viewBox="0 0 121 61" fill="none" xmlns="http://www.w3.org/2000/svg">
<circle cx="60.5" cy="30.1201" r="26.4706" stroke="#344356" stroke-width="7.05882"/>
<path fill-rule="evenodd" clip-rule="evenodd" d="M71.0882 24.8265H69.4593V23.1977C69.4593 18.2495 65.4499 14.2383 60.4999 14.2383C55.5517 14.2383 51.5405 18.2495 51.5405 23.1977V24.8265H49.9117C48.9376 24.8265 48.147 25.6171 48.147 26.5912V40.7089C48.147 41.683 48.9376 42.4736 49.9117 42.4736H71.0882C72.0623 42.4736 72.8529 41.683 72.8529 40.7089V26.5912C72.8529 25.6171 72.0623 24.8265 71.0882 24.8265ZM60.4999 37.1795C58.5499 37.1795 56.9705 35.6 56.9705 33.65C56.9705 31.7 58.5499 30.1206 60.4999 30.1206C62.4499 30.1206 64.0293 31.7 64.0293 33.65C64.0293 35.6 62.4499 37.1795 60.4999 37.1795ZM55.0697 24.8265H65.9297V23.1977C65.9297 20.203 63.4944 17.7677 60.4997 17.7677C57.5049 17.7677 55.0697 20.203 55.0697 23.1977V24.8265Z" fill="#344356" fill-opacity="0.85"/>
</svg>
