<svg width="796" height="143" viewBox="0 0 796 143" fill="none" xmlns="http://www.w3.org/2000/svg">
<rect width="796" height="143" rx="38" fill="#FF2733"/>
<circle cx="110" cy="72" r="43.2353" stroke="#551417" stroke-width="11.5294"/>
<path fill-rule="evenodd" clip-rule="evenodd" d="M127.295 63.3537H124.635V60.6933C124.635 52.6112 118.086 46.0596 110.001 46.0596C101.919 46.0596 95.3672 52.6112 95.3672 60.6933V63.3537H92.7068C91.1158 63.3537 89.8245 64.645 89.8245 66.236V89.2949C89.8245 90.8859 91.1158 92.1772 92.7068 92.1772H127.295C128.886 92.1772 130.177 90.8859 130.177 89.2949V66.236C130.177 64.645 128.886 63.3537 127.295 63.3537ZM110.001 83.5306C106.816 83.5306 104.236 80.9509 104.236 77.7659C104.236 74.5809 106.816 72.0012 110.001 72.0012C113.186 72.0012 115.765 74.5809 115.765 77.7659C115.765 80.9509 113.186 83.5306 110.001 83.5306ZM101.132 60.6934V63.3538H118.87V60.6934C118.87 55.8021 114.892 51.8244 110.001 51.8244C105.11 51.8244 101.132 55.8021 101.132 60.6934Z" fill="white"/>
<path d="M184.332 64H179.588L185.749 45.7403H191.625L197.786 64H193.043L188.754 50.3409H188.611L184.332 64ZM183.699 56.8138H193.613V60.1662H183.699V56.8138ZM196.874 49.3244V45.7403H212.308V49.3244H206.771V64H202.42V49.3244H196.874ZM214.463 64V45.7403H227.195V49.3244H218.876V53.0691H226.544V56.6622H218.876V60.4158H227.195V64H214.463ZM245.499 45.7403V64H241.754L234.488 53.4614H234.372V64H229.959V45.7403H233.757L240.943 56.261H241.095V45.7403H245.499ZM264.849 52.3558H260.391C260.331 51.8982 260.21 51.4851 260.025 51.1165C259.841 50.748 259.597 50.433 259.294 50.1715C258.991 49.9099 258.632 49.7108 258.215 49.5741C257.805 49.4314 257.351 49.3601 256.851 49.3601C255.966 49.3601 255.202 49.5771 254.56 50.011C253.924 50.4449 253.434 51.072 253.089 51.8922C252.75 52.7125 252.581 53.7051 252.581 54.8701C252.581 56.0827 252.753 57.0991 253.098 57.9194C253.448 58.7337 253.939 59.3489 254.569 59.765C255.205 60.1751 255.957 60.3801 256.825 60.3801C257.312 60.3801 257.755 60.3177 258.153 60.1929C258.557 60.0681 258.911 59.8868 259.214 59.649C259.523 59.4053 259.776 59.1111 259.972 58.7664C260.174 58.4157 260.314 58.0204 260.391 57.5806L264.849 57.6073C264.772 58.4157 264.537 59.2122 264.145 59.9968C263.758 60.7814 263.226 61.4976 262.549 62.1455C261.871 62.7874 261.045 63.2986 260.07 63.679C259.101 64.0594 257.99 64.2496 256.735 64.2496C255.083 64.2496 253.603 63.8871 252.295 63.1619C250.994 62.4308 249.965 61.3668 249.21 59.97C248.456 58.5732 248.078 56.8732 248.078 54.8701C248.078 52.8611 248.461 51.1581 249.228 49.7613C249.995 48.3645 251.032 47.3035 252.34 46.5784C253.648 45.8532 255.113 45.4906 256.735 45.4906C257.841 45.4906 258.863 45.6452 259.802 45.9542C260.742 46.2574 261.568 46.7032 262.281 47.2916C262.994 47.8741 263.574 48.5904 264.02 49.4404C264.465 50.2903 264.742 51.2622 264.849 52.3558ZM255.781 63.9019H257.529L257.386 64.7044C258.04 64.7995 258.563 65.0342 258.955 65.4087C259.348 65.7891 259.547 66.2825 259.553 66.8887C259.559 67.816 259.116 68.5471 258.224 69.0821C257.339 69.623 256.105 69.8934 254.524 69.8934L254.506 68.1013C255.321 68.1013 255.951 68.0092 256.397 67.8249C256.842 67.6407 257.074 67.3613 257.092 66.9868C257.11 66.6421 256.976 66.3657 256.691 66.1576C256.406 65.9556 255.963 65.8159 255.362 65.7386L255.781 63.9019ZM270.858 64H266.115L272.276 45.7403H278.151L284.312 64H279.569L275.28 50.3409H275.138L270.858 64ZM270.225 56.8138H280.14V60.1662H270.225V56.8138ZM272.722 43.9482L270.457 43.9393C270.457 42.7267 270.742 41.8113 271.313 41.1932C271.889 40.575 272.594 40.2659 273.426 40.2659C273.86 40.2659 274.231 40.3372 274.54 40.4799C274.855 40.6166 275.135 40.7771 275.379 40.9613C275.622 41.1456 275.848 41.3091 276.056 41.4517C276.264 41.5884 276.487 41.6568 276.725 41.6568C277.07 41.6568 277.322 41.532 277.483 41.2823C277.649 41.0327 277.735 40.6968 277.741 40.2748L279.97 40.3016C279.958 41.4963 279.664 42.4087 279.088 43.0387C278.517 43.6629 277.821 43.9809 277.001 43.9927C276.549 43.9987 276.166 43.9303 275.851 43.7877C275.542 43.645 275.272 43.4816 275.04 43.2973C274.814 43.113 274.597 42.9496 274.389 42.8069C274.181 42.6643 273.952 42.593 273.702 42.593C273.405 42.593 273.167 42.7118 272.989 42.9496C272.811 43.1873 272.722 43.5202 272.722 43.9482ZM302.654 54.8701C302.654 56.8792 302.268 58.5821 301.495 59.9789C300.723 61.3758 299.677 62.4367 298.357 63.1619C297.043 63.8871 295.569 64.2496 293.935 64.2496C292.294 64.2496 290.817 63.8841 289.504 63.153C288.19 62.4219 287.147 61.3609 286.374 59.97C285.607 58.5732 285.224 56.8732 285.224 54.8701C285.224 52.8611 285.607 51.1581 286.374 49.7613C287.147 48.3645 288.19 47.3035 289.504 46.5784C290.817 45.8532 292.294 45.4906 293.935 45.4906C295.569 45.4906 297.043 45.8532 298.357 46.5784C299.677 47.3035 300.723 48.3645 301.495 49.7613C302.268 51.1581 302.654 52.8611 302.654 54.8701ZM298.143 54.8701C298.143 53.6813 297.974 52.6768 297.635 51.8566C297.302 51.0363 296.82 50.4152 296.19 49.9931C295.566 49.5711 294.814 49.3601 293.935 49.3601C293.061 49.3601 292.309 49.5711 291.679 49.9931C291.049 50.4152 290.565 51.0363 290.226 51.8566C289.893 52.6768 289.726 53.6813 289.726 54.8701C289.726 56.0589 289.893 57.0634 290.226 57.8837C290.565 58.704 291.049 59.3251 291.679 59.7471C292.309 60.1691 293.061 60.3801 293.935 60.3801C294.814 60.3801 295.566 60.1691 296.19 59.7471C296.82 59.3251 297.302 58.704 297.635 57.8837C297.974 57.0634 298.143 56.0589 298.143 54.8701Z" fill="#551417"/>
<path d="M180.801 92V73.7403H184.109V89.2272H192.151V92H180.801ZM194.879 92V78.3052H198.107V92H194.879ZM196.502 76.3615C195.991 76.3615 195.551 76.1921 195.182 75.8533C194.814 75.5086 194.63 75.0955 194.63 74.614C194.63 74.1266 194.814 73.7135 195.182 73.3747C195.551 73.03 195.991 72.8576 196.502 72.8576C197.019 72.8576 197.459 73.03 197.821 73.3747C198.19 73.7135 198.374 74.1266 198.374 74.614C198.374 75.0955 198.19 75.5086 197.821 75.8533C197.459 76.1921 197.019 76.3615 196.502 76.3615ZM201.426 92V78.3052H204.511V80.6322H204.671C204.956 79.8476 205.429 79.2354 206.089 78.7956C206.748 78.3498 207.536 78.1269 208.451 78.1269C209.379 78.1269 210.16 78.3527 210.796 78.8045C211.438 79.2503 211.89 79.8595 212.152 80.6322H212.294C212.597 79.8714 213.108 79.2651 213.828 78.8134C214.553 78.3557 215.412 78.1269 216.404 78.1269C217.664 78.1269 218.693 78.5251 219.489 79.3216C220.286 80.1181 220.684 81.2801 220.684 82.8077V92H217.448V83.307C217.448 82.457 217.222 81.8359 216.77 81.4436C216.318 81.0453 215.765 80.8462 215.112 80.8462C214.333 80.8462 213.724 81.0899 213.284 81.5773C212.85 82.0588 212.633 82.6859 212.633 83.4586V92H209.468V83.1733C209.468 82.4659 209.254 81.9013 208.826 81.4793C208.404 81.0572 207.851 80.8462 207.168 80.8462C206.704 80.8462 206.282 80.9651 205.901 81.2029C205.521 81.4347 205.218 81.7646 204.992 82.1925C204.766 82.6145 204.653 83.1079 204.653 83.6726V92H201.426ZM223.958 92V78.3052H227.186V92H223.958ZM225.581 76.3615C225.07 76.3615 224.63 76.1921 224.262 75.8533C223.893 75.5086 223.709 75.0955 223.709 74.614C223.709 74.1266 223.893 73.7135 224.262 73.3747C224.63 73.03 225.07 72.8576 225.581 72.8576C226.098 72.8576 226.538 73.03 226.901 73.3747C227.269 73.7135 227.453 74.1266 227.453 74.614C227.453 75.0955 227.269 75.5086 226.901 75.8533C226.538 76.1921 226.098 76.3615 225.581 76.3615ZM237.343 78.3052V80.8016H229.471V78.3052H237.343ZM231.414 75.0241H234.642V87.8809C234.642 88.3148 234.707 88.6476 234.838 88.8794C234.975 89.1053 235.153 89.2599 235.373 89.3431C235.593 89.4263 235.837 89.4679 236.104 89.4679C236.306 89.4679 236.49 89.453 236.657 89.4233C236.829 89.3936 236.96 89.3668 237.049 89.3431L237.593 91.8663C237.421 91.9257 237.174 91.9911 236.853 92.0624C236.538 92.1337 236.152 92.1753 235.694 92.1872C234.886 92.211 234.157 92.0892 233.51 91.8217C232.862 91.5483 232.347 91.1262 231.967 90.5556C231.593 89.985 231.408 89.2717 231.414 88.4158V75.0241ZM245.958 92.2675C244.585 92.2675 243.399 91.9822 242.401 91.4116C241.408 90.835 240.644 90.0207 240.109 88.9686C239.575 87.9106 239.307 86.6653 239.307 85.2328C239.307 83.8241 239.575 82.5878 240.109 81.5238C240.65 80.4539 241.405 79.6218 242.374 79.0274C243.343 78.427 244.481 78.1269 245.789 78.1269C246.633 78.1269 247.429 78.2636 248.178 78.537C248.933 78.8045 249.599 79.2206 250.176 79.7852C250.758 80.3499 251.216 81.0691 251.549 81.9429C251.881 82.8107 252.048 83.8449 252.048 85.0456V86.0353H240.823V83.8598H248.954C248.948 83.2416 248.814 82.6918 248.553 82.2104C248.291 81.723 247.926 81.3396 247.456 81.0602C246.993 80.7808 246.452 80.6412 245.833 80.6412C245.174 80.6412 244.594 80.8016 244.095 81.1226C243.596 81.4376 243.206 81.8537 242.927 82.3708C242.653 82.882 242.514 83.4437 242.508 84.0559V85.955C242.508 86.7515 242.653 87.4351 242.945 88.0057C243.236 88.5704 243.643 89.0043 244.166 89.3074C244.689 89.6046 245.302 89.7532 246.003 89.7532C246.472 89.7532 246.897 89.6878 247.278 89.557C247.658 89.4203 247.988 89.2212 248.268 88.9597C248.547 88.6981 248.758 88.3742 248.901 87.9879L251.914 88.3267C251.724 89.1231 251.361 89.8186 250.826 90.413C250.297 91.0014 249.62 91.4591 248.794 91.786C247.967 92.107 247.022 92.2675 245.958 92.2675ZM266.088 92.2407C265.012 92.2407 264.049 91.9643 263.199 91.4116C262.349 90.8588 261.678 90.0563 261.184 89.0043C260.691 87.9522 260.444 86.6742 260.444 85.1704C260.444 83.6488 260.694 82.3649 261.193 81.3188C261.699 80.2667 262.379 79.4732 263.235 78.9382C264.091 78.3973 265.045 78.1269 266.097 78.1269C266.9 78.1269 267.559 78.2636 268.076 78.537C268.594 78.8045 269.004 79.1284 269.307 79.5088C269.61 79.8833 269.845 80.237 270.011 80.5698H270.145V73.7403H273.381V92H270.207V89.8424H270.011C269.845 90.1752 269.604 90.5289 269.289 90.9033C268.974 91.2719 268.558 91.5869 268.041 91.8484C267.524 92.11 266.873 92.2407 266.088 92.2407ZM266.989 89.5927C267.672 89.5927 268.255 89.4084 268.736 89.0399C269.218 88.6655 269.583 88.1454 269.833 87.4796C270.082 86.8139 270.207 86.0382 270.207 85.1526C270.207 84.267 270.082 83.4972 269.833 82.8434C269.589 82.1896 269.227 81.6813 268.745 81.3188C268.27 80.9562 267.684 80.7749 266.989 80.7749C266.269 80.7749 265.669 80.9621 265.188 81.3366C264.706 81.7111 264.344 82.2282 264.1 82.888C263.856 83.5477 263.734 84.3026 263.734 85.1526C263.734 86.0085 263.856 86.7723 264.1 87.444C264.35 88.1097 264.715 88.6357 265.197 89.0221C265.684 89.4025 266.281 89.5927 266.989 89.5927ZM282.883 92.2675C281.51 92.2675 280.325 91.9822 279.326 91.4116C278.333 90.835 277.57 90.0207 277.035 88.9686C276.5 87.9106 276.232 86.6653 276.232 85.2328C276.232 83.8241 276.5 82.5878 277.035 81.5238C277.576 80.4539 278.33 79.6218 279.299 79.0274C280.268 78.427 281.406 78.1269 282.714 78.1269C283.558 78.1269 284.355 78.2636 285.104 78.537C285.858 78.8045 286.524 79.2206 287.101 79.7852C287.683 80.3499 288.141 81.0691 288.474 81.9429C288.807 82.8107 288.973 83.8449 288.973 85.0456V86.0353H277.748V83.8598H285.879C285.873 83.2416 285.74 82.6918 285.478 82.2104C285.216 81.723 284.851 81.3396 284.381 81.0602C283.918 80.7808 283.377 80.6412 282.759 80.6412C282.099 80.6412 281.519 80.8016 281.02 81.1226C280.521 81.4376 280.131 81.8537 279.852 82.3708C279.579 82.882 279.439 83.4437 279.433 84.0559V85.955C279.433 86.7515 279.579 87.4351 279.87 88.0057C280.161 88.5704 280.568 89.0043 281.091 89.3074C281.614 89.6046 282.227 89.7532 282.928 89.7532C283.398 89.7532 283.823 89.6878 284.203 89.557C284.583 89.4203 284.913 89.2212 285.193 88.9597C285.472 88.6981 285.683 88.3742 285.826 87.9879L288.839 88.3267C288.649 89.1231 288.287 89.8186 287.752 90.413C287.223 91.0014 286.545 91.4591 285.719 91.786C284.893 92.107 283.947 92.2675 282.883 92.2675ZM301.872 92.2764C301.004 92.2764 300.223 92.1219 299.527 91.8128C298.838 91.4977 298.291 91.0341 297.887 90.4219C297.488 89.8097 297.289 89.0548 297.289 88.1573C297.289 87.3845 297.432 86.7456 297.717 86.2403C298.003 85.7351 298.392 85.3309 298.885 85.0278C299.379 84.7246 299.934 84.4958 300.553 84.3413C301.177 84.1808 301.822 84.0649 302.487 83.9935C303.29 83.9103 303.941 83.836 304.44 83.7706C304.939 83.6993 305.302 83.5923 305.528 83.4497C305.759 83.3011 305.875 83.0722 305.875 82.7631V82.7096C305.875 82.038 305.676 81.5179 305.278 81.1494C304.88 80.7808 304.306 80.5966 303.557 80.5966C302.767 80.5966 302.14 80.769 301.676 81.1137C301.218 81.4584 300.909 81.8656 300.749 82.3352L297.735 81.9072C297.973 81.0751 298.365 80.3796 298.912 79.8209C299.459 79.2562 300.128 78.8342 300.918 78.5548C301.709 78.2695 302.582 78.1269 303.539 78.1269C304.199 78.1269 304.856 78.2041 305.51 78.3587C306.164 78.5132 306.761 78.7688 307.302 79.1255C307.843 79.4761 308.277 79.9546 308.604 80.5609C308.936 81.1672 309.103 81.925 309.103 82.8345V92H306V90.1187H305.893C305.697 90.4992 305.421 90.8558 305.064 91.1887C304.713 91.5156 304.27 91.7801 303.736 91.9822C303.207 92.1783 302.585 92.2764 301.872 92.2764ZM302.71 89.9048C303.358 89.9048 303.92 89.777 304.395 89.5214C304.871 89.2599 305.236 88.9151 305.492 88.4871C305.753 88.0592 305.884 87.5926 305.884 87.0873V85.4736C305.783 85.5568 305.611 85.6341 305.367 85.7054C305.129 85.7767 304.862 85.8391 304.565 85.8926C304.267 85.9461 303.973 85.9937 303.682 86.0353C303.391 86.0769 303.138 86.1125 302.924 86.1423C302.443 86.2076 302.012 86.3146 301.631 86.4632C301.251 86.6118 300.951 86.8199 300.731 87.0873C300.511 87.3489 300.401 87.6877 300.401 88.1038C300.401 88.6981 300.618 89.1469 301.052 89.4501C301.486 89.7532 302.039 89.9048 302.71 89.9048ZM312.348 97.1356V78.3052H315.522V80.5698H315.71C315.876 80.237 316.111 79.8833 316.414 79.5088C316.717 79.1284 317.127 78.8045 317.644 78.537C318.161 78.2636 318.821 78.1269 319.624 78.1269C320.682 78.1269 321.636 78.3973 322.486 78.9382C323.342 79.4732 324.019 80.2667 324.518 81.3188C325.024 82.3649 325.276 83.6488 325.276 85.1704C325.276 86.6742 325.03 87.9522 324.536 89.0043C324.043 90.0563 323.371 90.8588 322.521 91.4116C321.671 91.9643 320.708 92.2407 319.633 92.2407C318.848 92.2407 318.197 92.11 317.68 91.8484C317.163 91.5869 316.747 91.2719 316.432 90.9033C316.123 90.5289 315.882 90.1752 315.71 89.8424H315.576V97.1356H312.348ZM315.513 85.1526C315.513 86.0382 315.638 86.8139 315.888 87.4796C316.143 88.1454 316.509 88.6655 316.985 89.0399C317.466 89.4084 318.048 89.5927 318.732 89.5927C319.445 89.5927 320.043 89.4025 320.524 89.0221C321.006 88.6357 321.368 88.1097 321.612 87.444C321.862 86.7723 321.986 86.0085 321.986 85.1526C321.986 84.3026 321.864 83.5477 321.621 82.888C321.377 82.2282 321.014 81.7111 320.533 81.3366C320.052 80.9621 319.451 80.7749 318.732 80.7749C318.043 80.7749 317.457 80.9562 316.976 81.3188C316.494 81.6813 316.129 82.1896 315.879 82.8434C315.635 83.4972 315.513 84.267 315.513 85.1526ZM334.103 92.2675C332.73 92.2675 331.544 91.9822 330.546 91.4116C329.553 90.835 328.789 90.0207 328.254 88.9686C327.719 87.9106 327.452 86.6653 327.452 85.2328C327.452 83.8241 327.719 82.5878 328.254 81.5238C328.795 80.4539 329.55 79.6218 330.519 79.0274C331.488 78.427 332.626 78.1269 333.934 78.1269C334.778 78.1269 335.574 78.2636 336.323 78.537C337.078 78.8045 337.744 79.2206 338.32 79.7852C338.903 80.3499 339.36 81.0691 339.693 81.9429C340.026 82.8107 340.193 83.8449 340.193 85.0456V86.0353H328.967V83.8598H337.099C337.093 83.2416 336.959 82.6918 336.698 82.2104C336.436 81.723 336.07 81.3396 335.601 81.0602C335.137 80.7808 334.596 80.6412 333.978 80.6412C333.318 80.6412 332.739 80.8016 332.24 81.1226C331.74 81.4376 331.351 81.8537 331.072 82.3708C330.798 82.882 330.659 83.4437 330.653 84.0559V85.955C330.653 86.7515 330.798 87.4351 331.089 88.0057C331.381 88.5704 331.788 89.0043 332.311 89.3074C332.834 89.6046 333.446 89.7532 334.148 89.7532C334.617 89.7532 335.042 89.6878 335.423 89.557C335.803 89.4203 336.133 89.2212 336.412 88.9597C336.692 88.6981 336.903 88.3742 337.045 87.9879L340.059 88.3267C339.869 89.1231 339.506 89.8186 338.971 90.413C338.442 91.0014 337.764 91.4591 336.938 91.786C336.112 92.107 335.167 92.2675 334.103 92.2675ZM346.151 83.9757V92H342.923V78.3052H346.008V80.6322H346.168C346.483 79.8655 346.986 79.2562 347.675 78.8045C348.371 78.3527 349.23 78.1269 350.252 78.1269C351.197 78.1269 352.02 78.329 352.722 78.7332C353.429 79.1373 353.976 79.7228 354.362 80.4896C354.754 81.2564 354.948 82.1866 354.942 83.2803V92H351.714V83.7796C351.714 82.8642 351.476 82.1479 351.001 81.6308C350.531 81.1137 349.88 80.8551 349.048 80.8551C348.484 80.8551 347.981 80.98 347.541 81.2296C347.108 81.4733 346.766 81.827 346.516 82.2906C346.272 82.7542 346.151 83.3159 346.151 83.9757ZM362.164 92.2764C361.296 92.2764 360.514 92.1219 359.819 91.8128C359.129 91.4977 358.582 91.0341 358.178 90.4219C357.78 89.8097 357.581 89.0548 357.581 88.1573C357.581 87.3845 357.723 86.7456 358.009 86.2403C358.294 85.7351 358.683 85.3309 359.177 85.0278C359.67 84.7246 360.226 84.4958 360.844 84.3413C361.468 84.1808 362.113 84.0649 362.779 83.9935C363.581 83.9103 364.232 83.836 364.731 83.7706C365.231 83.6993 365.593 83.5923 365.819 83.4497C366.051 83.3011 366.167 83.0722 366.167 82.7631V82.7096C366.167 82.038 365.968 81.5179 365.569 81.1494C365.171 80.7808 364.598 80.5966 363.849 80.5966C363.058 80.5966 362.431 80.769 361.967 81.1137C361.51 81.4584 361.201 81.8656 361.04 82.3352L358.027 81.9072C358.264 81.0751 358.657 80.3796 359.203 79.8209C359.75 79.2562 360.419 78.8342 361.21 78.5548C362 78.2695 362.874 78.1269 363.831 78.1269C364.491 78.1269 365.147 78.2041 365.801 78.3587C366.455 78.5132 367.052 78.7688 367.593 79.1255C368.134 79.4761 368.568 79.9546 368.895 80.5609C369.228 81.1672 369.394 81.925 369.394 82.8345V92H366.292V90.1187H366.185C365.988 90.4992 365.712 90.8558 365.355 91.1887C365.005 91.5156 364.562 91.7801 364.027 91.9822C363.498 92.1783 362.877 92.2764 362.164 92.2764ZM363.002 89.9048C363.65 89.9048 364.211 89.777 364.687 89.5214C365.162 89.2599 365.528 88.9151 365.783 88.4871C366.045 88.0592 366.176 87.5926 366.176 87.0873V85.4736C366.075 85.5568 365.902 85.6341 365.659 85.7054C365.421 85.7767 365.153 85.8391 364.856 85.8926C364.559 85.9461 364.265 85.9937 363.973 86.0353C363.682 86.0769 363.43 86.1125 363.216 86.1423C362.734 86.2076 362.303 86.3146 361.923 86.4632C361.542 86.6118 361.242 86.8199 361.022 87.0873C360.802 87.3489 360.692 87.6877 360.692 88.1038C360.692 88.6981 360.909 89.1469 361.343 89.4501C361.777 89.7532 362.33 89.9048 363.002 89.9048ZM383.464 81.925L380.521 82.246C380.438 81.9488 380.293 81.6695 380.084 81.4079C379.882 81.1464 379.609 80.9354 379.264 80.7749C378.919 80.6144 378.497 80.5342 377.998 80.5342C377.327 80.5342 376.762 80.6798 376.304 80.971C375.852 81.2623 375.63 81.6397 375.635 82.1034C375.63 82.5016 375.775 82.8256 376.072 83.0752C376.375 83.3248 376.875 83.5299 377.57 83.6904L379.906 84.1897C381.202 84.469 382.165 84.9119 382.795 85.5181C383.431 86.1244 383.752 86.9179 383.758 87.8987C383.752 88.7606 383.499 89.5214 383 90.1812C382.507 90.835 381.82 91.3462 380.94 91.7147C380.061 92.0832 379.05 92.2675 377.909 92.2675C376.233 92.2675 374.884 91.9168 373.861 91.2154C372.839 90.5081 372.23 89.5244 372.033 88.2642L375.181 87.9611C375.323 88.5793 375.627 89.0459 376.09 89.3609C376.554 89.6759 377.157 89.8334 377.9 89.8334C378.667 89.8334 379.282 89.6759 379.746 89.3609C380.215 89.0459 380.45 88.6565 380.45 88.1929C380.45 87.8006 380.298 87.4767 379.995 87.2211C379.698 86.9655 379.235 86.7693 378.604 86.6326L376.268 86.1423C374.955 85.8688 373.983 85.4082 373.353 84.7603C372.723 84.1065 372.411 83.2803 372.417 82.2817C372.411 81.4376 372.64 80.7065 373.103 80.0884C373.573 79.4643 374.224 78.9828 375.056 78.644C375.894 78.2993 376.86 78.1269 377.954 78.1269C379.558 78.1269 380.822 78.4687 381.743 79.1522C382.67 79.8358 383.244 80.76 383.464 81.925ZM546.821 97.1356V78.3052H549.995V80.5698H550.182C550.348 80.237 550.583 79.8833 550.886 79.5088C551.189 79.1284 551.599 78.8045 552.117 78.537C552.634 78.2636 553.293 78.1269 554.096 78.1269C555.154 78.1269 556.108 78.3973 556.958 78.9382C557.814 79.4732 558.491 80.2667 558.991 81.3188C559.496 82.3649 559.749 83.6488 559.749 85.1704C559.749 86.6742 559.502 87.9522 559.009 89.0043C558.515 90.0563 557.844 90.8588 556.994 91.4116C556.144 91.9643 555.181 92.2407 554.105 92.2407C553.32 92.2407 552.669 92.11 552.152 91.8484C551.635 91.5869 551.219 91.2719 550.904 90.9033C550.595 90.5289 550.354 90.1752 550.182 89.8424H550.048V97.1356H546.821ZM549.986 85.1526C549.986 86.0382 550.11 86.8139 550.36 87.4796C550.616 88.1454 550.981 88.6655 551.457 89.0399C551.938 89.4084 552.521 89.5927 553.204 89.5927C553.918 89.5927 554.515 89.4025 554.996 89.0221C555.478 88.6357 555.84 88.1097 556.084 87.444C556.334 86.7723 556.459 86.0085 556.459 85.1526C556.459 84.3026 556.337 83.5477 556.093 82.888C555.849 82.2282 555.487 81.7111 555.005 81.3366C554.524 80.9621 553.924 80.7749 553.204 80.7749C552.515 80.7749 551.929 80.9562 551.448 81.3188C550.966 81.6813 550.601 82.1896 550.351 82.8434C550.108 83.4972 549.986 84.267 549.986 85.1526ZM568.486 92.2675C567.149 92.2675 565.99 91.9733 565.009 91.3848C564.028 90.7964 563.267 89.9731 562.726 88.9151C562.192 87.8571 561.924 86.6207 561.924 85.2061C561.924 83.7914 562.192 82.5521 562.726 81.4882C563.267 80.4242 564.028 79.598 565.009 79.0096C565.99 78.4211 567.149 78.1269 568.486 78.1269C569.824 78.1269 570.983 78.4211 571.963 79.0096C572.944 79.598 573.702 80.4242 574.237 81.4882C574.778 82.5521 575.048 83.7914 575.048 85.2061C575.048 86.6207 574.778 87.8571 574.237 88.9151C573.702 89.9731 572.944 90.7964 571.963 91.3848C570.983 91.9733 569.824 92.2675 568.486 92.2675ZM568.504 89.6819C569.229 89.6819 569.835 89.4827 570.323 89.0845C570.81 88.6803 571.173 88.1394 571.411 87.4618C571.654 86.7842 571.776 86.0293 571.776 85.1972C571.776 84.3591 571.654 83.6012 571.411 82.9236C571.173 82.2401 570.81 81.6962 570.323 81.292C569.835 80.8878 569.229 80.6857 568.504 80.6857C567.761 80.6857 567.143 80.8878 566.649 81.292C566.162 81.6962 565.797 82.2401 565.553 82.9236C565.315 83.6012 565.196 84.3591 565.196 85.1972C565.196 86.0293 565.315 86.7842 565.553 87.4618C565.797 88.1394 566.162 88.6803 566.649 89.0845C567.143 89.4827 567.761 89.6819 568.504 89.6819ZM577.788 92V78.3052H580.917V80.5877H581.06C581.309 79.7971 581.737 79.1879 582.344 78.7599C582.956 78.326 583.654 78.109 584.439 78.109C584.617 78.109 584.816 78.118 585.036 78.1358C585.262 78.1477 585.449 78.1685 585.598 78.1982V81.1672C585.461 81.1196 585.244 81.078 584.947 81.0424C584.656 81.0008 584.373 80.98 584.1 80.98C583.512 80.98 582.983 81.1078 582.513 81.3633C582.049 81.613 581.684 81.9607 581.416 82.4065C581.149 82.8523 581.015 83.3664 581.015 83.949V92H577.788ZM599.052 92.2407C597.976 92.2407 597.013 91.9643 596.163 91.4116C595.313 90.8588 594.642 90.0563 594.148 89.0043C593.655 87.9522 593.408 86.6742 593.408 85.1704C593.408 83.6488 593.658 82.3649 594.157 81.3188C594.662 80.2667 595.343 79.4732 596.199 78.9382C597.055 78.3973 598.009 78.1269 599.061 78.1269C599.863 78.1269 600.523 78.2636 601.04 78.537C601.557 78.8045 601.968 79.1284 602.271 79.5088C602.574 79.8833 602.809 80.237 602.975 80.5698H603.109V73.7403H606.345V92H603.171V89.8424H602.975C602.809 90.1752 602.568 90.5289 602.253 90.9033C601.938 91.2719 601.522 91.5869 601.005 91.8484C600.487 92.11 599.837 92.2407 599.052 92.2407ZM599.953 89.5927C600.636 89.5927 601.219 89.4084 601.7 89.0399C602.182 88.6655 602.547 88.1454 602.797 87.4796C603.046 86.8139 603.171 86.0382 603.171 85.1526C603.171 84.267 603.046 83.4972 602.797 82.8434C602.553 82.1896 602.19 81.6813 601.709 81.3188C601.233 80.9562 600.648 80.7749 599.953 80.7749C599.233 80.7749 598.633 80.9621 598.152 81.3366C597.67 81.7111 597.307 82.2282 597.064 82.888C596.82 83.5477 596.698 84.3026 596.698 85.1526C596.698 86.0085 596.82 86.7723 597.064 87.444C597.313 88.1097 597.679 88.6357 598.16 89.0221C598.648 89.4025 599.245 89.5927 599.953 89.5927ZM609.785 92V78.3052H613.012V92H609.785ZM611.407 76.3615C610.896 76.3615 610.456 76.1921 610.088 75.8533C609.719 75.5086 609.535 75.0955 609.535 74.614C609.535 74.1266 609.719 73.7135 610.088 73.3747C610.456 73.03 610.896 72.8576 611.407 72.8576C611.924 72.8576 612.364 73.03 612.727 73.3747C613.095 73.7135 613.28 74.1266 613.28 74.614C613.28 75.0955 613.095 75.5086 612.727 75.8533C612.364 76.1921 611.924 76.3615 611.407 76.3615ZM627.155 81.925L624.213 82.246C624.129 81.9488 623.984 81.6695 623.776 81.4079C623.574 81.1464 623.3 80.9354 622.956 80.7749C622.611 80.6144 622.189 80.5342 621.689 80.5342C621.018 80.5342 620.453 80.6798 619.995 80.971C619.544 81.2623 619.321 81.6397 619.327 82.1034C619.321 82.5016 619.466 82.8256 619.764 83.0752C620.067 83.3248 620.566 83.5299 621.262 83.6904L623.597 84.1897C624.893 84.469 625.856 84.9119 626.486 85.5181C627.122 86.1244 627.443 86.9179 627.449 87.8987C627.443 88.7606 627.191 89.5214 626.691 90.1812C626.198 90.835 625.511 91.3462 624.632 91.7147C623.752 92.0832 622.742 92.2675 621.6 92.2675C619.924 92.2675 618.575 91.9168 617.553 91.2154C616.53 90.5081 615.921 89.5244 615.725 88.2642L618.872 87.9611C619.015 88.5793 619.318 89.0459 619.781 89.3609C620.245 89.6759 620.848 89.8334 621.591 89.8334C622.358 89.8334 622.973 89.6759 623.437 89.3609C623.907 89.0459 624.141 88.6565 624.141 88.1929C624.141 87.8006 623.99 87.4767 623.687 87.2211C623.389 86.9655 622.926 86.7693 622.296 86.6326L619.96 86.1423C618.646 85.8688 617.674 85.4082 617.044 84.7603C616.414 84.1065 616.102 83.2803 616.108 82.2817C616.102 81.4376 616.331 80.7065 616.795 80.0884C617.264 79.4643 617.915 78.9828 618.747 78.644C619.585 78.2993 620.551 78.1269 621.645 78.1269C623.25 78.1269 624.513 78.4687 625.434 79.1522C626.361 79.8358 626.935 80.76 627.155 81.925ZM630.111 97.1356V78.3052H633.285V80.5698H633.472C633.638 80.237 633.873 79.8833 634.176 79.5088C634.479 79.1284 634.889 78.8045 635.407 78.537C635.924 78.2636 636.583 78.1269 637.386 78.1269C638.444 78.1269 639.398 78.3973 640.248 78.9382C641.104 79.4732 641.781 80.2667 642.281 81.3188C642.786 82.3649 643.039 83.6488 643.039 85.1704C643.039 86.6742 642.792 87.9522 642.299 89.0043C641.805 90.0563 641.134 90.8588 640.284 91.4116C639.434 91.9643 638.471 92.2407 637.395 92.2407C636.61 92.2407 635.959 92.11 635.442 91.8484C634.925 91.5869 634.509 91.2719 634.194 90.9033C633.885 90.5289 633.644 90.1752 633.472 89.8424H633.338V97.1356H630.111ZM633.276 85.1526C633.276 86.0382 633.4 86.8139 633.65 87.4796C633.906 88.1454 634.271 88.6655 634.747 89.0399C635.228 89.4084 635.811 89.5927 636.494 89.5927C637.208 89.5927 637.805 89.4025 638.286 89.0221C638.768 88.6357 639.13 88.1097 639.374 87.444C639.624 86.7723 639.749 86.0085 639.749 85.1526C639.749 84.3026 639.627 83.5477 639.383 82.888C639.139 82.2282 638.777 81.7111 638.295 81.3366C637.814 80.9621 637.213 80.7749 636.494 80.7749C635.805 80.7749 635.219 80.9562 634.738 81.3188C634.256 81.6813 633.891 82.1896 633.641 82.8434C633.397 83.4972 633.276 84.267 633.276 85.1526ZM651.776 92.2675C650.439 92.2675 649.28 91.9733 648.299 91.3848C647.318 90.7964 646.557 89.9731 646.016 88.9151C645.482 87.8571 645.214 86.6207 645.214 85.2061C645.214 83.7914 645.482 82.5521 646.016 81.4882C646.557 80.4242 647.318 79.598 648.299 79.0096C649.28 78.4211 650.439 78.1269 651.776 78.1269C653.114 78.1269 654.273 78.4211 655.253 79.0096C656.234 79.598 656.992 80.4242 657.527 81.4882C658.068 82.5521 658.338 83.7914 658.338 85.2061C658.338 86.6207 658.068 87.8571 657.527 88.9151C656.992 89.9731 656.234 90.7964 655.253 91.3848C654.273 91.9733 653.114 92.2675 651.776 92.2675ZM651.794 89.6819C652.519 89.6819 653.125 89.4827 653.613 89.0845C654.1 88.6803 654.463 88.1394 654.701 87.4618C654.944 86.7842 655.066 86.0293 655.066 85.1972C655.066 84.3591 654.944 83.6012 654.701 82.9236C654.463 82.2401 654.1 81.6962 653.613 81.292C653.125 80.8878 652.519 80.6857 651.794 80.6857C651.051 80.6857 650.433 80.8878 649.939 81.292C649.452 81.6962 649.087 82.2401 648.843 82.9236C648.605 83.6012 648.486 84.3591 648.486 85.1972C648.486 86.0293 648.605 86.7842 648.843 87.4618C649.087 88.1394 649.452 88.6803 649.939 89.0845C650.433 89.4827 651.051 89.6819 651.794 89.6819ZM671.902 81.925L668.959 82.246C668.876 81.9488 668.73 81.6695 668.522 81.4079C668.32 81.1464 668.047 80.9354 667.702 80.7749C667.357 80.6144 666.935 80.5342 666.436 80.5342C665.764 80.5342 665.2 80.6798 664.742 80.971C664.29 81.2623 664.067 81.6397 664.073 82.1034C664.067 82.5016 664.213 82.8256 664.51 83.0752C664.813 83.3248 665.313 83.5299 666.008 83.6904L668.344 84.1897C669.64 84.469 670.603 84.9119 671.233 85.5181C671.869 86.1244 672.19 86.9179 672.196 87.8987C672.19 88.7606 671.937 89.5214 671.438 90.1812C670.945 90.835 670.258 91.3462 669.378 91.7147C668.499 92.0832 667.488 92.2675 666.347 92.2675C664.671 92.2675 663.321 91.9168 662.299 91.2154C661.277 90.5081 660.668 89.5244 660.471 88.2642L663.619 87.9611C663.761 88.5793 664.064 89.0459 664.528 89.3609C664.992 89.6759 665.595 89.8334 666.338 89.8334C667.105 89.8334 667.72 89.6759 668.184 89.3609C668.653 89.0459 668.888 88.6565 668.888 88.1929C668.888 87.8006 668.736 87.4767 668.433 87.2211C668.136 86.9655 667.672 86.7693 667.042 86.6326L664.706 86.1423C663.393 85.8688 662.421 85.4082 661.791 84.7603C661.161 84.1065 660.849 83.2803 660.855 82.2817C660.849 81.4376 661.078 80.7065 661.541 80.0884C662.011 79.4643 662.662 78.9828 663.494 78.644C664.332 78.2993 665.298 78.1269 666.392 78.1269C667.996 78.1269 669.259 78.4687 670.181 79.1522C671.108 79.8358 671.682 80.76 671.902 81.925ZM674.857 92V78.3052H678.085V92H674.857ZM676.48 76.3615C675.969 76.3615 675.529 76.1921 675.16 75.8533C674.792 75.5086 674.607 75.0955 674.607 74.614C674.607 74.1266 674.792 73.7135 675.16 73.3747C675.529 73.03 675.969 72.8576 676.48 72.8576C676.997 72.8576 677.437 73.03 677.799 73.3747C678.168 73.7135 678.352 74.1266 678.352 74.614C678.352 75.0955 678.168 75.5086 677.799 75.8533C677.437 76.1921 676.997 76.3615 676.48 76.3615ZM688.242 78.3052V80.8016H680.369V78.3052H688.242ZM682.313 75.0241H685.541V87.8809C685.541 88.3148 685.606 88.6476 685.737 88.8794C685.873 89.1053 686.052 89.2599 686.272 89.3431C686.492 89.4263 686.735 89.4679 687.003 89.4679C687.205 89.4679 687.389 89.453 687.556 89.4233C687.728 89.3936 687.859 89.3668 687.948 89.3431L688.492 91.8663C688.319 91.9257 688.073 91.9911 687.752 92.0624C687.437 92.1337 687.05 92.1753 686.593 92.1872C685.784 92.211 685.056 92.0892 684.408 91.8217C683.76 91.5483 683.246 91.1262 682.866 90.5556C682.491 89.985 682.307 89.2717 682.313 88.4158V75.0241ZM690.941 92V78.3052H694.169V92H690.941ZM692.564 76.3615C692.053 76.3615 691.613 76.1921 691.245 75.8533C690.876 75.5086 690.692 75.0955 690.692 74.614C690.692 74.1266 690.876 73.7135 691.245 73.3747C691.613 73.03 692.053 72.8576 692.564 72.8576C693.081 72.8576 693.521 73.03 693.884 73.3747C694.252 73.7135 694.436 74.1266 694.436 74.614C694.436 75.0955 694.252 75.5086 693.884 75.8533C693.521 76.1921 693.081 76.3615 692.564 76.3615ZM709.72 78.3052L704.843 92H701.277L696.4 78.3052H699.842L702.989 88.4782H703.132L706.288 78.3052H709.72ZM717.462 92.2675C716.124 92.2675 714.965 91.9733 713.985 91.3848C713.004 90.7964 712.243 89.9731 711.702 88.9151C711.167 87.8571 710.9 86.6207 710.9 85.2061C710.9 83.7914 711.167 82.5521 711.702 81.4882C712.243 80.4242 713.004 79.598 713.985 79.0096C714.965 78.4211 716.124 78.1269 717.462 78.1269C718.799 78.1269 719.958 78.4211 720.939 79.0096C721.92 79.598 722.678 80.4242 723.212 81.4882C723.753 82.5521 724.024 83.7914 724.024 85.2061C724.024 86.6207 723.753 87.8571 723.212 88.9151C722.678 89.9731 721.92 90.7964 720.939 91.3848C719.958 91.9733 718.799 92.2675 717.462 92.2675ZM717.48 89.6819C718.205 89.6819 718.811 89.4827 719.298 89.0845C719.786 88.6803 720.148 88.1394 720.386 87.4618C720.63 86.7842 720.752 86.0293 720.752 85.1972C720.752 84.3591 720.63 83.6012 720.386 82.9236C720.148 82.2401 719.786 81.6962 719.298 81.292C718.811 80.8878 718.205 80.6857 717.48 80.6857C716.737 80.6857 716.118 80.8878 715.625 81.292C715.138 81.6962 714.772 82.2401 714.528 82.9236C714.291 83.6012 714.172 84.3591 714.172 85.1972C714.172 86.0293 714.291 86.7842 714.528 87.4618C714.772 88.1394 715.138 88.6803 715.625 89.0845C716.118 89.4827 716.737 89.6819 717.48 89.6819ZM728.751 92.1961C728.211 92.1961 727.747 92.0059 727.361 91.6255C726.974 91.2451 726.784 90.7815 726.79 90.2347C726.784 89.6997 726.974 89.242 727.361 88.8616C727.747 88.4812 728.211 88.291 728.751 88.291C729.275 88.291 729.729 88.4812 730.116 88.8616C730.508 89.242 730.707 89.6997 730.713 90.2347C730.707 90.5972 730.612 90.9271 730.428 91.2243C730.249 91.5215 730.012 91.7593 729.714 91.9376C729.423 92.11 729.102 92.1961 728.751 92.1961Z" fill="white"/>
<path d="M401.153 73.7403V92H396.195V78.3052H396.089L392.094 80.6947V76.4864L396.588 73.7403H401.153ZM409.868 92V73.7403H417.75C419.105 73.7403 420.291 74.0077 421.307 74.5427C422.324 75.0776 423.114 75.8295 423.679 76.7984C424.243 77.7673 424.526 78.8996 424.526 80.1954C424.526 81.503 424.234 82.6353 423.652 83.5923C423.075 84.5493 422.264 85.2863 421.218 85.8035C420.178 86.3206 418.962 86.5791 417.571 86.5791H412.864V82.7275H416.573C417.155 82.7275 417.652 82.6264 418.062 82.4243C418.478 82.2163 418.796 81.9221 419.016 81.5417C419.242 81.1613 419.355 80.7125 419.355 80.1954C419.355 79.6723 419.242 79.2265 419.016 78.858C418.796 78.4835 418.478 78.1982 418.062 78.0021C417.652 77.8 417.155 77.6989 416.573 77.6989H414.825V92H409.868ZM426.345 92V73.7403H439.504V77.7346H431.302V80.873H438.827V84.8673H431.302V88.0057H439.469V92H426.345ZM451.806 79.4464C451.759 78.852 451.536 78.3884 451.137 78.0556C450.745 77.7227 450.148 77.5563 449.345 77.5563C448.834 77.5563 448.415 77.6187 448.088 77.7435C447.767 77.8624 447.529 78.0258 447.375 78.2339C447.22 78.4419 447.14 78.6797 447.134 78.9471C447.122 79.1671 447.161 79.3662 447.25 79.5445C447.345 79.7169 447.494 79.8744 447.696 80.017C447.898 80.1538 448.157 80.2786 448.472 80.3915C448.787 80.5044 449.161 80.6055 449.595 80.6947L451.093 81.0156C452.103 81.2296 452.968 81.5119 453.687 81.8626C454.407 82.2133 454.995 82.6264 455.453 83.1019C455.91 83.5715 456.246 84.1005 456.46 84.689C456.68 85.2774 456.793 85.9194 456.799 86.6148C456.793 87.8155 456.493 88.8319 455.899 89.664C455.304 90.4962 454.454 91.1292 453.349 91.5631C452.249 91.997 450.926 92.214 449.381 92.214C447.794 92.214 446.409 91.9792 445.226 91.5096C444.049 91.0401 443.134 90.3179 442.48 89.3431C441.832 88.3623 441.505 87.1081 441.499 85.5806H446.207C446.237 86.1393 446.376 86.6089 446.626 86.9893C446.876 87.3697 447.226 87.658 447.678 87.8541C448.136 88.0503 448.68 88.1483 449.31 88.1483C449.839 88.1483 450.281 88.083 450.638 87.9522C450.995 87.8214 451.265 87.6401 451.449 87.4083C451.634 87.1765 451.729 86.912 451.735 86.6148C451.729 86.3354 451.637 86.0917 451.458 85.8837C451.286 85.6697 451.001 85.4795 450.602 85.3131C450.204 85.1407 449.666 84.9802 448.989 84.8316L447.17 84.4393C445.553 84.0886 444.278 83.5032 443.345 82.6829C442.418 81.8567 441.957 80.7303 441.963 79.3038C441.957 78.1447 442.266 77.1313 442.89 76.2635C443.52 75.3897 444.391 74.7091 445.503 74.2217C446.62 73.7343 447.901 73.4906 449.345 73.4906C450.819 73.4906 452.094 73.7373 453.17 74.2306C454.246 74.724 455.075 75.4194 455.658 76.317C456.246 77.2085 456.543 78.2517 456.549 79.4464H451.806ZM465.746 85.2239H469.598L470.989 86.9714L473.342 89.6462L476.41 93.3552H472.023L469.847 90.8231L468.385 88.719L465.746 85.2239ZM476.374 82.8701C476.374 84.903 475.979 86.6178 475.188 88.0146C474.398 89.4055 473.331 90.4605 471.987 91.1797C470.644 91.893 469.146 92.2496 467.494 92.2496C465.829 92.2496 464.326 91.89 462.982 91.1708C461.645 90.4457 460.581 89.3876 459.79 87.9968C459.006 86.5999 458.613 84.8911 458.613 82.8701C458.613 80.8373 459.006 79.1255 459.79 77.7346C460.581 76.3378 461.645 75.2827 462.982 74.5694C464.326 73.8502 465.829 73.4906 467.494 73.4906C469.146 73.4906 470.644 73.8502 471.987 74.5694C473.331 75.2827 474.398 76.3378 475.188 77.7346C475.979 79.1255 476.374 80.8373 476.374 82.8701ZM471.274 82.8701C471.274 81.7764 471.128 80.8551 470.837 80.1062C470.552 79.3513 470.127 78.7807 469.562 78.3944C469.003 78.0021 468.314 77.8059 467.494 77.8059C466.673 77.8059 465.981 78.0021 465.416 78.3944C464.858 78.7807 464.433 79.3513 464.141 80.1062C463.856 80.8551 463.713 81.7764 463.713 82.8701C463.713 83.9638 463.856 84.8881 464.141 85.643C464.433 86.3919 464.858 86.9625 465.416 87.3548C465.981 87.7412 466.673 87.9344 467.494 87.9344C468.314 87.9344 469.003 87.7412 469.562 87.3548C470.127 86.9625 470.552 86.3919 470.837 85.643C471.128 84.8881 471.274 83.9638 471.274 82.8701ZM489.498 73.7403H494.455V85.4379C494.455 86.8288 494.122 88.0324 493.457 89.0488C492.797 90.0593 491.876 90.8409 490.693 91.3937C489.51 91.9406 488.137 92.214 486.574 92.214C484.998 92.214 483.619 91.9406 482.437 91.3937C481.254 90.8409 480.332 90.0593 479.673 89.0488C479.019 88.0324 478.692 86.8288 478.692 85.4379V73.7403H483.649V85.0099C483.649 85.5746 483.774 86.0799 484.024 86.5256C484.273 86.9655 484.618 87.3102 485.058 87.5599C485.504 87.8095 486.009 87.9344 486.574 87.9344C487.144 87.9344 487.649 87.8095 488.089 87.5599C488.529 87.3102 488.874 86.9655 489.124 86.5256C489.373 86.0799 489.498 85.5746 489.498 85.0099V73.7403ZM501.769 73.7403V92H496.811V73.7403H501.769ZM513.961 79.4464C513.913 78.852 513.691 78.3884 513.292 78.0556C512.9 77.7227 512.303 77.5563 511.5 77.5563C510.989 77.5563 510.57 77.6187 510.243 77.7435C509.922 77.8624 509.684 78.0258 509.53 78.2339C509.375 78.4419 509.295 78.6797 509.289 78.9471C509.277 79.1671 509.316 79.3662 509.405 79.5445C509.5 79.7169 509.649 79.8744 509.851 80.017C510.053 80.1538 510.311 80.2786 510.626 80.3915C510.942 80.5044 511.316 80.6055 511.75 80.6947L513.248 81.0156C514.258 81.2296 515.123 81.5119 515.842 81.8626C516.561 82.2133 517.15 82.6264 517.608 83.1019C518.065 83.5715 518.401 84.1005 518.615 84.689C518.835 85.2774 518.948 85.9194 518.954 86.6148C518.948 87.8155 518.648 88.8319 518.053 89.664C517.459 90.4962 516.609 91.1292 515.503 91.5631C514.404 91.997 513.081 92.214 511.536 92.214C509.949 92.214 508.564 91.9792 507.381 91.5096C506.204 91.0401 505.289 90.3179 504.635 89.3431C503.987 88.3623 503.66 87.1081 503.654 85.5806H508.362C508.392 86.1393 508.531 86.6089 508.781 86.9893C509.031 87.3697 509.381 87.658 509.833 87.8541C510.291 88.0503 510.835 88.1483 511.465 88.1483C511.994 88.1483 512.436 88.083 512.793 87.9522C513.15 87.8214 513.42 87.6401 513.604 87.4083C513.789 87.1765 513.884 86.912 513.89 86.6148C513.884 86.3354 513.792 86.0917 513.613 85.8837C513.441 85.6697 513.156 85.4795 512.757 85.3131C512.359 85.1407 511.821 84.9802 511.144 84.8316L509.325 84.4393C507.708 84.0886 506.433 83.5032 505.5 82.6829C504.573 81.8567 504.112 80.7303 504.118 79.3038C504.112 78.1447 504.421 77.1313 505.045 76.2635C505.675 75.3897 506.546 74.7091 507.657 74.2217C508.775 73.7343 510.056 73.4906 511.5 73.4906C512.974 73.4906 514.249 73.7373 515.325 74.2306C516.401 74.724 517.23 75.4194 517.813 76.317C518.401 77.2085 518.698 78.2517 518.704 79.4464H513.961ZM524.872 92H519.522L525.549 73.7403H532.326L538.353 92H533.003L529.009 78.7688H528.866L524.872 92ZM523.873 84.796H533.93V88.505H523.873V84.796Z" fill="#34FF53"/>
</svg>
