<svg width="198" height="58" viewBox="0 0 198 58" fill="none" xmlns="http://www.w3.org/2000/svg">
<path d="M128.733 55.1264C128.733 55.1264 128.733 44.9679 121.312 41.2764C116.615 38.9396 118.425 40.7273 112.659 38.3366C106.894 35.9496 105.528 35.1691 105.528 35.1691L105.477 29.6936C105.477 29.6936 107.636 28.0546 108.31 22.8764C109.658 23.2667 110.114 21.2959 110.187 20.0369C110.267 18.8207 110.985 15.0297 109.335 15.3679C109.673 12.8369 109.937 10.5484 109.819 9.3368C109.406 5.085 106.466 0.644587 99.045 0.320312C92.7361 0.644587 88.6404 5.08779 88.2269 9.33959C88.1079 10.5512 88.3505 12.8378 88.6877 15.3735C87.0394 15.0306 87.7493 18.829 87.8218 20.0444C87.9017 21.3034 88.3477 23.2797 89.6987 22.8894C90.3695 28.0685 92.5289 29.7196 92.5289 29.7196L92.475 35.2248C92.475 35.2248 91.1091 36.0583 85.3437 38.4453C79.5783 40.8369 81.3865 38.9405 76.6896 41.2764C69.2666 44.9698 69.2666 55.1264 69.2666 55.1264H69.2685C69.2675 55.1282 69.2666 55.1329 69.2666 55.1329C69.2666 56.6725 70.5145 57.9203 72.0541 57.9203H125.945C127.484 57.9203 128.732 56.6725 128.732 55.1329C128.732 55.1301 128.731 55.1264 128.731 55.1264H128.733Z" fill="#5468FF"/>
</svg>
